<svg xmlns="http://www.w3.org/2000/svg" xmlns:xlink="http://www.w3.org/1999/xlink" width="24" height="50" viewBox="0 0 24 50">
  <defs>
    <clipPath id="clip-path">
      <rect id="사각형_155170" data-name="사각형 155170" width="24" height="24" transform="translate(-23504 -22880)" fill="#fff" stroke="#707070" stroke-width="1"/>
    </clipPath>
  </defs>
  <g id="그룹_171130" data-name="그룹 171130" transform="translate(23401 22941)">
    <g id="마스크_그룹_168754" data-name="마스크 그룹 168754" transform="translate(103 -61)" clip-path="url(#clip-path)">
      <path id="search_FILL0_wght200_GRAD0_opsz20" d="M196.856-763.862l-8.354-8.354a8,8,0,0,1-2.315,1.268,7.593,7.593,0,0,1-2.518.44,7.1,7.1,0,0,1-5.214-2.147,7.091,7.091,0,0,1-2.148-5.21,7.108,7.108,0,0,1,2.147-5.214,7.087,7.087,0,0,1,5.21-2.152,7.106,7.106,0,0,1,5.214,2.148,7.094,7.094,0,0,1,2.152,5.214,7.417,7.417,0,0,1-.467,2.6,8.067,8.067,0,0,1-1.241,2.234l8.355,8.355Zm-13.188-7.773a6.023,6.023,0,0,0,4.43-1.805,6.023,6.023,0,0,0,1.805-4.43,6.023,6.023,0,0,0-1.805-4.43,6.023,6.023,0,0,0-4.43-1.805,6.023,6.023,0,0,0-4.43,1.805,6.023,6.023,0,0,0-1.805,4.43,6.023,6.023,0,0,0,1.805,4.43A6.023,6.023,0,0,0,183.668-771.634Z" transform="translate(-23678.807 -22093.27)" fill="#1a1a1a" stroke="#1a1a1a" stroke-width="1"/>
    </g>
    <g id="마스크_그룹_168755" data-name="마스크 그룹 168755" transform="translate(103 -35)" clip-path="url(#clip-path)">
      <path id="search_FILL0_wght200_GRAD0_opsz20-2" data-name="search_FILL0_wght200_GRAD0_opsz20" d="M196.856-763.862l-8.354-8.354a8,8,0,0,1-2.315,1.268,7.593,7.593,0,0,1-2.518.44,7.1,7.1,0,0,1-5.214-2.147,7.091,7.091,0,0,1-2.148-5.21,7.108,7.108,0,0,1,2.147-5.214,7.087,7.087,0,0,1,5.21-2.152,7.106,7.106,0,0,1,5.214,2.148,7.094,7.094,0,0,1,2.152,5.214,7.417,7.417,0,0,1-.467,2.6,8.067,8.067,0,0,1-1.241,2.234l8.355,8.355Zm-13.188-7.773a6.023,6.023,0,0,0,4.43-1.805,6.023,6.023,0,0,0,1.805-4.43,6.023,6.023,0,0,0-1.805-4.43,6.023,6.023,0,0,0-4.43-1.805,6.023,6.023,0,0,0-4.43,1.805,6.023,6.023,0,0,0-1.805,4.43,6.023,6.023,0,0,0,1.805,4.43A6.023,6.023,0,0,0,183.668-771.634Z" transform="translate(-23678.807 -22093.27)" fill="#f1f1f1" stroke="#f1f1f1" stroke-width="1"/>
    </g>
  </g>
</svg>
