<svg xmlns="http://www.w3.org/2000/svg" xmlns:xlink="http://www.w3.org/1999/xlink" width="19" height="61" viewBox="0 0 19 61">
  <defs>
    <clipPath id="clip-path">
      <rect id="사각형_155066" data-name="사각형 155066" width="19" height="19" transform="translate(-24222 -22761)" fill="#fff" stroke="#707070" stroke-width="1"/>
    </clipPath>
  </defs>
  <g id="그룹_170910" data-name="그룹 170910" transform="translate(24211 22732)">
    <g id="마스크_그룹_239" data-name="마스크 그룹 239" transform="translate(11 29)" clip-path="url(#clip-path)">
      <g id="keyboard_arrow_down_FILL0_wght200_GRAD0_opsz20" transform="translate(-24205.936 -22745.68) rotate(-135)" fill="#1a1a1a" stroke-linejoin="round">
        <path d="M 8.837587356567383 10.51497077941895 L 8.484027862548828 10.16141033172607 L -0.3535324931144714 1.323640704154968 L -0.7071024775505066 0.9700606465339661 L -0.353502482175827 0.6165106892585754 L 0.616717517375946 -0.3535793423652649 L 0.9702675342559814 -0.7070793509483337 L 1.323797464370728 -0.3535493314266205 L 8.83758544921875 7.160210609436035 L 16.35152816772461 -0.3535593450069427 L 16.70503807067871 -0.7070593237876892 L 17.0585880279541 -0.3535893261432648 L 18.02889823913574 0.6165006756782532 L 18.38253784179688 0.9700506925582886 L 18.02893829345703 1.323640704154968 L 9.191137313842773 10.16141033172607 L 8.837587356567383 10.51497077941895 Z" stroke="none"/>
        <path d="M 8.837587356567383 9.807860374450684 L 17.67538833618164 0.9700906872749329 L 16.705078125 6.640624974352249e-07 L 8.837587356567383 7.867310523986816 L 0.9702475070953369 6.640624974352249e-07 L 2.751953070401214e-05 0.9700906872749329 L 8.837587356567383 9.807860374450684 M 8.837577819824219 10.80786037445068 C 8.572357177734375 10.80786037445068 8.318007469177246 10.70250034332275 8.130467414855957 10.51496028900146 L -0.7070924639701843 1.677190661430359 C -0.8946324586868286 1.489640712738037 -0.999982476234436 1.235280632972717 -0.9999724626541138 0.9700506925582886 C -0.9999625086784363 0.7048206925392151 -0.8945924639701843 0.4504706561565399 -0.7070325016975403 0.2629406750202179 L 0.2631875276565552 -0.7071493268013 C 0.6537174582481384 -1.097629189491272 1.286847352981567 -1.097609281539917 1.67735755443573 -0.7071093320846558 L 8.83759880065918 6.453104972839355 L 15.9979772567749 -0.7071093320846558 C 16.38847732543945 -1.09759795665741 17.02156448364258 -1.097630739212036 17.41210746765137 -0.7071893215179443 L 18.38241767883301 0.2629006505012512 C 18.56998825073242 0.4504306614398956 18.67537689208984 0.7048006653785706 18.67538833618164 0.970030665397644 C 18.6753978729248 1.235270619392395 18.57004737854004 1.48965060710907 18.38249778747559 1.677200675010681 L 9.544697761535645 10.51497077941895 C 9.357157707214355 10.70251083374023 9.102797508239746 10.80786037445068 8.837577819824219 10.80786037445068 Z" stroke="none" fill="#1a1a1a"/>
      </g>
      <line id="선_878" data-name="선 878" y1="18.573" transform="translate(-24220.119 -22743.996) rotate(-135)" fill="none" stroke="#1a1a1a" stroke-width="3"/>
    </g>
    <g id="마스크_그룹_261" data-name="마스크 그룹 261" transform="translate(11 71)" clip-path="url(#clip-path)">
      <g id="keyboard_arrow_down_FILL0_wght200_GRAD0_opsz20-2" data-name="keyboard_arrow_down_FILL0_wght200_GRAD0_opsz20" transform="translate(-24205.936 -22745.68) rotate(-135)" fill="#f1f1f1" stroke-linejoin="round">
        <path d="M 8.837587356567383 10.51497077941895 L 8.484027862548828 10.16141033172607 L -0.3535324931144714 1.323640704154968 L -0.7071024775505066 0.9700606465339661 L -0.353502482175827 0.6165106892585754 L 0.616717517375946 -0.3535793423652649 L 0.9702675342559814 -0.7070793509483337 L 1.323797464370728 -0.3535493314266205 L 8.83758544921875 7.160210609436035 L 16.35152816772461 -0.3535593450069427 L 16.70503807067871 -0.7070593237876892 L 17.0585880279541 -0.3535893261432648 L 18.02889823913574 0.6165006756782532 L 18.38253784179688 0.9700506925582886 L 18.02893829345703 1.323640704154968 L 9.191137313842773 10.16141033172607 L 8.837587356567383 10.51497077941895 Z" stroke="none"/>
        <path d="M 8.837587356567383 9.807860374450684 L 17.67538833618164 0.9700906872749329 L 16.705078125 6.640624974352249e-07 L 8.837587356567383 7.867310523986816 L 0.9702475070953369 6.640624974352249e-07 L 2.751953070401214e-05 0.9700906872749329 L 8.837587356567383 9.807860374450684 M 8.837577819824219 10.80786037445068 C 8.572357177734375 10.80786037445068 8.318007469177246 10.70250034332275 8.130467414855957 10.51496028900146 L -0.7070924639701843 1.677190661430359 C -0.8946324586868286 1.489640712738037 -0.999982476234436 1.235280632972717 -0.9999724626541138 0.9700506925582886 C -0.9999625086784363 0.7048206925392151 -0.8945924639701843 0.4504706561565399 -0.7070325016975403 0.2629406750202179 L 0.2631875276565552 -0.7071493268013 C 0.6537174582481384 -1.097629189491272 1.286847352981567 -1.097609281539917 1.67735755443573 -0.7071093320846558 L 8.83759880065918 6.453104972839355 L 15.9979772567749 -0.7071093320846558 C 16.38847732543945 -1.09759795665741 17.02156448364258 -1.097630739212036 17.41210746765137 -0.7071893215179443 L 18.38241767883301 0.2629006505012512 C 18.56998825073242 0.4504306614398956 18.67537689208984 0.7048006653785706 18.67538833618164 0.970030665397644 C 18.6753978729248 1.235270619392395 18.57004737854004 1.48965060710907 18.38249778747559 1.677200675010681 L 9.544697761535645 10.51497077941895 C 9.357157707214355 10.70251083374023 9.102797508239746 10.80786037445068 8.837577819824219 10.80786037445068 Z" stroke="none" fill="#f1f1f1"/>
      </g>
      <line id="선_956" data-name="선 956" y1="18.573" transform="translate(-24220.119 -22743.996) rotate(-135)" fill="none" stroke="#f1f1f1" stroke-width="3"/>
    </g>
    <g id="마스크_그룹_265" data-name="마스크 그룹 265" transform="translate(11 50)" clip-path="url(#clip-path)">
      <g id="keyboard_arrow_down_FILL0_wght200_GRAD0_opsz20-3" data-name="keyboard_arrow_down_FILL0_wght200_GRAD0_opsz20" transform="translate(-24205.936 -22745.68) rotate(-135)" fill="#e7343f" stroke-linejoin="round">
        <path d="M 8.837587356567383 10.51497077941895 L 8.484027862548828 10.16141033172607 L -0.3535324931144714 1.323640704154968 L -0.7071024775505066 0.9700606465339661 L -0.353502482175827 0.6165106892585754 L 0.616717517375946 -0.3535793423652649 L 0.9702675342559814 -0.7070793509483337 L 1.323797464370728 -0.3535493314266205 L 8.83758544921875 7.160210609436035 L 16.35152816772461 -0.3535593450069427 L 16.70503807067871 -0.7070593237876892 L 17.0585880279541 -0.3535893261432648 L 18.02889823913574 0.6165006756782532 L 18.38253784179688 0.9700506925582886 L 18.02893829345703 1.323640704154968 L 9.191137313842773 10.16141033172607 L 8.837587356567383 10.51497077941895 Z" stroke="none"/>
        <path d="M 8.837587356567383 9.807860374450684 L 17.67538833618164 0.9700906872749329 L 16.705078125 6.640624974352249e-07 L 8.837587356567383 7.867310523986816 L 0.9702475070953369 6.640624974352249e-07 L 2.751953070401214e-05 0.9700906872749329 L 8.837587356567383 9.807860374450684 M 8.837577819824219 10.80786037445068 C 8.572357177734375 10.80786037445068 8.318007469177246 10.70250034332275 8.130467414855957 10.51496028900146 L -0.7070924639701843 1.677190661430359 C -0.8946324586868286 1.489640712738037 -0.999982476234436 1.235280632972717 -0.9999724626541138 0.9700506925582886 C -0.9999625086784363 0.7048206925392151 -0.8945924639701843 0.4504706561565399 -0.7070325016975403 0.2629406750202179 L 0.2631875276565552 -0.7071493268013 C 0.6537174582481384 -1.097629189491272 1.286847352981567 -1.097609281539917 1.67735755443573 -0.7071093320846558 L 8.83759880065918 6.453104972839355 L 15.9979772567749 -0.7071093320846558 C 16.38847732543945 -1.09759795665741 17.02156448364258 -1.097630739212036 17.41210746765137 -0.7071893215179443 L 18.38241767883301 0.2629006505012512 C 18.56998825073242 0.4504306614398956 18.67537689208984 0.7048006653785706 18.67538833618164 0.970030665397644 C 18.6753978729248 1.235270619392395 18.57004737854004 1.48965060710907 18.38249778747559 1.677200675010681 L 9.544697761535645 10.51497077941895 C 9.357157707214355 10.70251083374023 9.102797508239746 10.80786037445068 8.837577819824219 10.80786037445068 Z" stroke="none" fill="#e7343f"/>
      </g>
      <line id="선_958" data-name="선 958" y1="18.573" transform="translate(-24220.119 -22743.996) rotate(-135)" fill="none" stroke="#e7343f" stroke-width="3"/>
    </g>
  </g>
</svg>
