<svg xmlns="http://www.w3.org/2000/svg" width="26" height="54" viewBox="0 0 26 54">
  <g id="ico-lang" transform="translate(-2513 4830)">
    <g id="Icon_feather-globe" data-name="Icon feather-globe" transform="translate(2511 -4832)">
      <path id="패스_108237" data-name="패스 108237" d="M15,2a13,13,0,0,1,9.192,22.192A13,13,0,0,1,5.808,5.808,12.915,12.915,0,0,1,15,2Zm0,24a11,11,0,1,0-7.778-3.222A10.928,10.928,0,0,0,15,26Z" transform="translate(0 0)"/>
      <path id="패스_108238" data-name="패스 108238" d="M26.367,20.5a1,1,0,0,1-.451-.108c-.059-.03-5.979-2.988-11.505-2.988A26.01,26.01,0,0,0,3.486,20.37a1,1,0,1,1-.972-1.748,27.7,27.7,0,0,1,11.9-3.222c6.011,0,12.15,3.073,12.408,3.2a1,1,0,0,1-.452,1.892Z" transform="translate(0.633 -3.496)"/>
      <path id="패스_108239" data-name="패스 108239" d="M17.933,2a1,1,0,0,1,.663.251,17.646,17.646,0,0,1,6.269,12.723q0,.026,0,.051A17.646,17.646,0,0,1,18.6,27.749a1,1,0,0,1-1.326,0A17.646,17.646,0,0,1,11,15.026q0-.026,0-.051A17.646,17.646,0,0,1,17.27,2.251,1,1,0,0,1,17.933,2Zm4.933,13A15.474,15.474,0,0,0,17.933,4.364,15.474,15.474,0,0,0,13,15a15.474,15.474,0,0,0,4.933,10.636A15.474,15.474,0,0,0,22.865,15Z" transform="translate(-2.933)"/>
    </g>
    <g id="그룹_171855" data-name="그룹 171855" transform="translate(-38 10)">
      <circle id="타원_9968" data-name="타원 9968" cx="13" cy="13" r="13" transform="translate(2551 -4812)" fill="#1a1a1a"/>
      <g id="Icon_feather-globe-2" data-name="Icon feather-globe" transform="translate(2550 -4813)">
        <path id="패스_108237-2" data-name="패스 108237" d="M14,2a12,12,0,0,1,8.485,20.485A12,12,0,0,1,5.515,5.515,11.921,11.921,0,0,1,14,2Zm0,22.153A10.154,10.154,0,1,0,6.82,21.18,10.087,10.087,0,0,0,14,24.153Z" transform="translate(0 0)" fill="#f5f5f5"/>
        <path id="패스_108238-2" data-name="패스 108238" d="M24.492,20.1a.919.919,0,0,1-.416-.1c-.054-.027-5.519-2.758-10.62-2.758A24.009,24.009,0,0,0,3.372,19.988a.923.923,0,1,1-.9-1.614A25.568,25.568,0,0,1,13.456,15.4c5.549,0,11.215,2.836,11.454,2.957a.923.923,0,0,1-.418,1.747Z" transform="translate(0.584 -4.258)" fill="#f5f5f5"/>
        <path id="패스_108239-2" data-name="패스 108239" d="M17.4,2a.921.921,0,0,1,.612.232A16.289,16.289,0,0,1,23.8,13.976q0,.024,0,.048a16.289,16.289,0,0,1-5.787,11.744.923.923,0,0,1-1.224,0A16.289,16.289,0,0,1,11,14.024q0-.024,0-.048A16.289,16.289,0,0,1,16.787,2.232.921.921,0,0,1,17.4,2Zm4.553,12A14.284,14.284,0,0,0,17.4,4.182,14.284,14.284,0,0,0,12.846,14,14.284,14.284,0,0,0,17.4,23.817,14.284,14.284,0,0,0,21.952,14Z" transform="translate(-3.4 0)" fill="#f5f5f5"/>
      </g>
    </g>
  </g>
</svg>
